[Header]
FileType HTR
DataType HTRS
FileVersion 1
NumSegments 64
NumFrames 2
DataFrameRate 24
EulerRotationOrder ZYX
CalibrationUnits mm
RotationUnits Degrees
GlobalAxisofGravity Y
BoneLengthAxis Y
ScaleFactor 1.0
[SegmentNames&Hierarchy]
Hips	GLOBAL
Spine	Hips
Spine1	Spine
Spine2	Spine1
Neck	Spine2
Head	Neck
LeftEye	Head
RightEye	Head
LeftShoulder	Spine2
LeftArm	LeftShoulder
LeftForeArm	LeftArm
LeftHand	LeftForeArm
LeftHandThumb1	LeftHand
LeftHandThumb2	LeftHandThumb1
LeftHandThumb3	LeftHandThumb2
LeftHandThumb4	LeftHandThumb3
LeftHandIndex1	LeftHand
LeftHandIndex2	LeftHandIndex1
LeftHandIndex3	LeftHandIndex2
LeftHandIndex4	LeftHandIndex3
LeftHandMiddle1	LeftHand
LeftHandMiddle2	LeftHandMiddle1
LeftHandMiddle3	LeftHandMiddle2
LeftHandMiddle4	LeftHandMiddle3
LeftHandRing1	LeftHand
LeftHandRing2	LeftHandRing1
LeftHandRing3	LeftHandRing2
LeftHandRing4	LeftHandRing3
LeftHandPinky1	LeftHand
LeftHandPinky2	LeftHandPinky1
LeftHandPinky3	LeftHandPinky2
LeftHandPinky4	LeftHandPinky3
RightShoulder	Spine2
RightArm	RightShoulder
RightForeArm	RightArm
RightHand	RightForeArm
RightHandPinky1	RightHand
RightHandPinky2	RightHandPinky1
RightHandPinky3	RightHandPinky2
RightHandPinky4	RightHandPinky3
RightHandRing1	RightHand
RightHandRing2	RightHandRing1
RightHandRing3	RightHandRing2
RightHandRing4	RightHandRing3
RightHandMiddle1	RightHand
RightHandMiddle2	RightHandMiddle1
RightHandMiddle3	RightHandMiddle2
RightHandMiddle4	RightHandMiddle3
RightHandIndex1	RightHand
RightHandIndex2	RightHandIndex1
RightHandIndex3	RightHandIndex2
RightHandIndex4	RightHandIndex3
RightHandThumb1	RightHand
RightHandThumb2	RightHandThumb1
RightHandThumb3	RightHandThumb2
RightHandThumb4	RightHandThumb3
LeftUpLeg	Hips
LeftLeg	LeftUpLeg
LeftFoot	LeftLeg
LeftToeBase	LeftFoot
RightUpLeg	Hips
RightLeg	RightUpLeg
RightFoot	RightLeg
RightToeBase	RightFoot
[BasePosition]
Hips	0	0	0	0	0	0	1
Spine	0	0	0	0	0	0	1
Spine1	0	0	0	0	0	0	1
Spine2	0	0	0	0	0	0	1
Neck	0	0	0	0	0	0	1
Head	0	0	0	0	0	0	1
LeftEye	0	0	0	0	0	0	1
RightEye	0	0	0	0	0	0	1
LeftShoulder	0	0	0	0	0	0	1
LeftArm	0	0	0	0	0	0	1
LeftForeArm	0	0	0	0	0	0	1
LeftHand	0	0	0	0	0	0	1
LeftHandThumb1	0	0	0	0	0	0	1
LeftHandThumb2	0	0	0	0	0	0	1
LeftHandThumb3	0	0	0	0	0	0	1
LeftHandThumb4	0	0	0	0	0	0	1
LeftHandIndex1	0	0	0	0	0	0	1
LeftHandIndex2	0	0	0	0	0	0	1
LeftHandIndex3	0	0	0	0	0	0	1
LeftHandIndex4	0	0	0	0	0	0	1
LeftHandMiddle1	0	0	0	0	0	0	1
LeftHandMiddle2	0	0	0	0	0	0	1
LeftHandMiddle3	0	0	0	0	0	0	1
LeftHandMiddle4	0	0	0	0	0	0	1
LeftHandRing1	0	0	0	0	0	0	1
LeftHandRing2	0	0	0	0	0	0	1
LeftHandRing3	0	0	0	0	0	0	1
LeftHandRing4	0	0	0	0	0	0	1
LeftHandPinky1	0	0	0	0	0	0	1
LeftHandPinky2	0	0	0	0	0	0	1
LeftHandPinky3	0	0	0	0	0	0	1
LeftHandPinky4	0	0	0	0	0	0	1
RightShoulder	0	0	0	0	0	0	1
RightArm	0	0	0	0	0	0	1
RightForeArm	0	0	0	0	0	0	1
RightHand	0	0	0	0	0	0	1
RightHandPinky1	0	0	0	0	0	0	1
RightHandPinky2	0	0	0	0	0	0	1
RightHandPinky3	0	0	0	0	0	0	1
RightHandPinky4	0	0	0	0	0	0	1
RightHandRing1	0	0	0	0	0	0	1
RightHandRing2	0	0	0	0	0	0	1
RightHandRing3	0	0	0	0	0	0	1
RightHandRing4	0	0	0	0	0	0	1
RightHandMiddle1	0	0	0	0	0	0	1
RightHandMiddle2	0	0	0	0	0	0	1
RightHandMiddle3	0	0	0	0	0	0	1
RightHandMiddle4	0	0	0	0	0	0	1
RightHandIndex1	0	0	0	0	0	0	1
RightHandIndex2	0	0	0	0	0	0	1
RightHandIndex3	0	0	0	0	0	0	1
RightHandIndex4	0	0	0	0	0	0	1
RightHandThumb1	0	0	0	0	0	0	1
RightHandThumb2	0	0	0	0	0	0	1
RightHandThumb3	0	0	0	0	0	0	1
RightHandThumb4	0	0	0	0	0	0	1
LeftUpLeg	0	0	0	0	0	0	1
LeftLeg	0	0	0	0	0	0	1
LeftFoot	0	0	0	0	0	0	1
LeftToeBase	0	0	0	0	0	0	1
RightUpLeg	0	0	0	0	0	0	1
RightLeg	0	0	0	0	0	0	1
RightFoot	0	0	0	0	0	0	1
RightToeBase	0	0	0	0	0	0	1
[Hips]
15	-11.5873642	984.9390259	10.61509323	11.05233765	-53.59096527	-11.88503838	1.0
16	-11.8239975	985.2163086	10.55390739	11.07310009	-53.5530014	-11.89510059	1.0
[Spine]
15	9.234152094e-05	101.8158798	1.31520927	2.992850304	6.56481123	3.299601078	1.0
16	9.234152094e-05	101.8158798	1.31520927	2.959418058	6.574416637	3.291835308	1.0
[Spine1]
15	2.519402869e-06	100.8345108	-10.00804329	2.677375793	7.77096796	-0.1405587196	1.0
16	2.519402869e-06	100.8345108	-10.00804329	2.655556679	7.776621819	-0.1375920773	1.0
[Spine2]
15	3.4574864e-06	91.00010681	-13.73417091	2.734059095	7.777711391	-0.3352870345	1.0
16	3.4574864e-06	91.00010681	-13.73417091	2.712397814	7.782597542	-0.3309488893	1.0
[Neck]
15	6.334285445e-06	166.7166901	-25.16167831	11.3158865	7.598612309	-2.908266068	1.0
16	6.334285445e-06	166.7166901	-25.16167831	11.34687042	7.587761879	-2.896586895	1.0
[Head]
15	-4.242318937e-06	96.17874908	16.85007477	2.175974846	20.01780701	8.719018936	1.0
16	-4.242318937e-06	96.17874908	16.85007477	2.178045034	19.96311951	8.741166115	1.0
[LeftEye]
15	30.67560577	64.09507751	92.83554077	0	0	0	1.0
16	30.67560577	64.09507751	92.83554077	0	0	0	1.0
[RightEye]
15	-30.67550468	64.09500122	92.83547211	0	0	0	1.0
16	-30.67550468	64.09500122	92.83547211	0	0	0	1.0
[LeftShoulder]
15	45.70446396	109.4598465	-26.27988052	2.689195156	5.863992691	-12.71789551	1.0
16	45.70446396	109.4598465	-26.27988052	2.682200193	5.840885162	-12.65637207	1.0
[LeftArm]
15	105.9236984	-5.245829105	-22.32120132	-29.72112083	-56.51219559	-17.33587456	1.0
16	105.9236984	-5.245829105	-22.32120132	-29.63635445	-56.4692955	-17.38566589	1.0
[LeftForeArm]
15	278.4151917	-0.0008942864952	0.0003745891154	-5.911397238e-05	-82.61919403	-0.0001180684121	1.0
16	278.4151917	-0.0008942864952	0.0003745891154	-2.874829079e-05	-82.56044769	-0.0001658965484	1.0
[LeftHand]
15	283.2883911	-0.0001744071778	0.0003780452244	-47.35176086	47.80253983	0.4511289001	1.0
16	283.2883911	-0.0001744071778	0.0003780452244	-47.455513	47.67323685	0.5637912154	1.0
[LeftHandThumb1]
15	24.66140366	-15.7504921	26.82413483	-12.29798794	13.35949898	9.401165009	1.0
16	24.66140366	-15.7504921	26.82413483	-12.29798794	13.35949898	9.401165009	1.0
[LeftHandThumb2]
15	32.29803848	-18.6469059	18.64681244	-0.2483453304	-4.311873436	13.28869915	1.0
16	32.29803848	-18.6469059	18.64681244	-0.2483453304	-4.311873436	13.28869915	1.0
[LeftHandThumb3]
15	26.52565002	-15.31492996	15.31471634	-9.976514816	-23.52258492	0.1755283028	1.0
16	26.52565002	-15.31492996	15.31471634	-9.976514816	-23.52258492	0.1755283028	1.0
[LeftHandThumb4]
15	19.54566956	-11.2850008	11.28492165	0	0	0	1.0
16	19.54566956	-11.2850008	11.28492165	0	0	0	1.0
[LeftHandIndex1]
15	91.09301758	-5.170834064	22.6007309	-2.034207106	1.761208534	-31.54689026	1.0
16	91.09301758	-5.170834064	22.6007309	-2.034207106	1.761208534	-31.54689026	1.0
[LeftHandIndex2]
15	36.76409531	-6.939138257e-05	0.0002924251603	-3.082290649	5.140966415	-61.86808395	1.0
16	36.76409531	-6.939138257e-05	0.0002924251603	-3.082290649	5.140966415	-61.86808395	1.0
[LeftHandIndex3]
15	28.83062553	0.000385119667	-0.0004276481632	-0.5015913248	2.368166685	-23.91410255	1.0
16	28.83062553	0.000385119667	-0.0004276481632	-0.5015913248	2.368166685	-23.91410255	1.0
[LeftHandIndex4]
15	23.92720032	0.0003702590766	0.0003355443478	0	0	0	1.0
16	23.92720032	0.0003702590766	0.0003355443478	0	0	0	1.0
[LeftHandMiddle1]
15	95.33401489	-0.000339240476	0.0001393702551	-2.959770441	-0.3316034675	-41.48937225	1.0
16	95.33401489	-0.000339240476	0.0001393702551	-2.959770441	-0.3316034675	-41.48937225	1.0
[LeftHandMiddle2]
15	36.98236847	1.961359158e-05	0.0001791696704	-2.939359903	5.06229353	-60.2610817	1.0
16	36.98236847	1.961359158e-05	0.0001791696704	-2.939359903	5.06229353	-60.2610817	1.0
[LeftHandMiddle3]
15	29.50921631	-0.0003937608562	0.0001644795993	-1.315997601	3.691623449	-39.22911072	1.0
16	29.50921631	-0.0003937608562	0.0001644795993	-1.315997601	3.691623449	-39.22911072	1.0
[LeftHandMiddle4]
15	28.3390255	-0.0003893481917	-9.504223272e-05	0	0	0	1.0
16	28.3390255	-0.0003893481917	-9.504223272e-05	0	0	0	1.0
[LeftHandRing1]
15	91.04527283	-0.4393950403	-18.65084648	-3.775710106	-4.751326084	-49.6909523	1.0
16	91.04527283	-0.4393950403	-18.65084648	-3.775710106	-4.751326084	-49.6909523	1.0
[LeftHandRing2]
15	31.54026794	-6.55346812e-05	0.000104257444	-3.032872438	5.114353657	-61.31506729	1.0
16	31.54026794	-6.55346812e-05	0.000104257444	-3.032872438	5.114353657	-61.31506729	1.0
[LeftHandRing3]
15	29.37672424	-0.0004545861739	-6.864757597e-05	-0.350160718	1.992284179	-19.93597984	1.0
16	29.37672424	-0.0004545861739	-6.864757597e-05	-0.350160718	1.992284179	-19.93597984	1.0
[LeftHandRing4]
15	26.47452545	-0.0004980441299	7.070515267e-07	0	0	0	1.0
16	26.47452545	-0.0004980441299	7.070515267e-07	0	0	0	1.0
[LeftHandPinky1]
15	80.77777863	-4.886682034	-38.06066895	-2.494308233	-10.25931644	-37.81870651	1.0
16	80.77777863	-4.886682034	-38.06066895	-2.494308233	-10.25931644	-37.81870651	1.0
[LeftHandPinky2]
15	36.00034332	-2.252215199e-05	-0.0002623879409	-2.836258411	5.002195358	-59.08558273	1.0
16	36.00034332	-2.252215199e-05	-0.0002623879409	-2.836258411	5.002195358	-59.08558273	1.0
[LeftHandPinky3]
15	21.14211655	0.0001953828178	-2.864415183e-05	-0.872974813	3.07111001	-31.72867775	1.0
16	21.14211655	0.0001953828178	-2.864415183e-05	-0.872974813	3.07111001	-31.72867775	1.0
[LeftHandPinky4]
15	19.7568264	0.0001240565616	-0.0004430140834	0	0	0	1.0
16	19.7568264	0.0001240565616	-0.0004430140834	0	0	0	1.0
[RightShoulder]
15	-45.69969559	109.4617615	-26.28017426	-14.73191357	1.319061399	-4.351140499	1.0
16	-45.69969559	109.4617615	-26.28017426	-14.75145531	1.276509762	-4.45781374	1.0
[RightArm]
15	-105.9284363	-5.247983932	-22.32098579	-64.384758	118.7119064	-18.71912956	1.0
16	-105.9284363	-5.247983932	-22.32098579	-64.09916687	118.7251587	-18.49507141	1.0
[RightForeArm]
15	-278.4151917	-0.0003307921579	0.0001167631053	-9.383237739e-06	30.49825287	-3.487021786e-06	1.0
16	-278.4151917	-0.0003307921579	0.0001167631053	-1.244044415e-05	30.30905533	-4.036145128e-06	1.0
[RightHand]
15	-283.2883911	-1.581417109e-06	0.000558160129	-42.55570221	-29.91760635	-15.92894173	1.0
16	-283.2883911	-1.581417109e-06	0.000558160129	-42.675354	-29.78686523	-15.92233753	1.0
[RightHandPinky1]
15	-80.76674652	-4.88459301	-38.06010437	-4.179559231	-3.048670053	59.07947159	1.0
16	-80.76674652	-4.88459301	-38.06010437	-4.179559231	-3.048670053	59.07947159	1.0
[RightHandPinky2]
15	-36.00034332	0.0003967665543	0.0005081442068	-3.174546003	-4.396142006	71.67469025	1.0
16	-36.00034332	0.0003967665543	0.0005081442068	-3.174546003	-4.396142006	71.67469025	1.0
[RightHandPinky3]
15	-21.14211655	0.0001513792522	0.0001479376951	-1.761317968	-3.635984421	51.6805954	1.0
16	-21.14211655	0.0001513792522	0.0001479376951	-1.761317968	-3.635984421	51.6805954	1.0
[RightHandPinky4]
15	-19.7568264	-0.000185219571	-9.839841368e-06	0	0	0	1.0
16	-19.7568264	-0.000185219571	-9.839841368e-06	0	0	0	1.0
[RightHandRing1]
15	-91.03588104	-0.4391434789	-18.65072441	-4.049632549	-6.933060169	57.63954544	1.0
16	-91.03588104	-0.4391434789	-18.65072441	-4.049632549	-6.933060169	57.63954544	1.0
[RightHandRing2]
15	-31.54026794	0.0002399729856	0.0004885121016	-5.297682285	-4.582300186	98.2931366	1.0
16	-31.54026794	0.0002399729856	0.0004885121016	-5.297682285	-4.582300186	98.2931366	1.0
[RightHandRing3]
15	-29.37672424	-0.0004160065437	-0.0003966063377	-1.618076921	-3.518265247	49.38505554	1.0
16	-29.37672424	-0.0004160065437	-0.0003966063377	-1.618076921	-3.518265247	49.38505554	1.0
[RightHandRing4]
15	-26.47452545	0.0002460821415	-2.294923434e-05	0	0	0	1.0
16	-26.47452545	0.0002460821415	-2.294923434e-05	0	0	0	1.0
[RightHandMiddle1]
15	-95.32502747	-0.0001631230261	0.0001679184206	-3.53036809	-16.46828079	52.07723618	1.0
16	-95.32502747	-0.0001631230261	0.0001679184206	-3.53036809	-16.46828079	52.07723618	1.0
[RightHandMiddle2]
15	-36.98236847	0.000150669599	-0.0002254552383	-6.350979805	-4.299677372	111.8329315	1.0
16	-36.98236847	0.000150669599	-0.0002254552383	-6.350979805	-4.299677372	111.8329315	1.0
[RightHandMiddle3]
15	-29.50921631	-3.113244929e-06	-3.03402544e-06	-0.2459617406	-1.492588997	18.73979759	1.0
16	-29.50921631	-3.113244929e-06	-3.03402544e-06	-0.2459617406	-1.492588997	18.73979759	1.0
[RightHandMiddle4]
15	-28.3390255	8.05324089e-05	0.0005378770875	0	0	0	1.0
16	-28.3390255	8.05324089e-05	0.0005378770875	0	0	0	1.0
[RightHandIndex1]
15	-91.08280945	-5.167889595	22.60116386	-1.387360573	-4.207729816	25.46813583	1.0
16	-91.08280945	-5.167889595	22.60116386	-1.387360573	-4.207729816	25.46813583	1.0
[RightHandIndex2]
15	-36.76409531	0.0001922715601	0.0003235567128	-1.643622756	-3.539990187	49.80016327	1.0
16	-36.76409531	0.0001922715601	0.0003235567128	-1.643622756	-3.539990187	49.80016327	1.0
[RightHandIndex3]
15	-28.83062553	-0.0004960121587	0.0004044897505	-1.727792621	-3.609309912	51.15027237	1.0
16	-28.83062553	-0.0004960121587	0.0004044897505	-1.727792621	-3.609309912	51.15027237	1.0
[RightHandIndex4]
15	-23.92720032	0.0002681470069	0.0002802013478	0	0	0	1.0
16	-23.92720032	0.0002681470069	0.0002802013478	0	0	0	1.0
[RightHandThumb1]
15	-24.64805984	-15.72714233	26.82626534	7.322416306	-6.350176334	10.24958611	1.0
16	-24.64805984	-15.72714233	26.82626534	7.322416306	-6.350176334	10.24958611	1.0
[RightHandThumb2]
15	-32.29771805	-18.6470871	18.64718437	26.54580307	-9.159310341	-24.03568459	1.0
16	-32.29771805	-18.6470871	18.64718437	26.54580307	-9.159310341	-24.03568459	1.0
[RightHandThumb3]
15	-26.52605057	-15.31449318	15.31445599	31.8479023	-40.59857559	-44.24287415	1.0
16	-26.52605057	-15.31449318	15.31445599	31.8479023	-40.59857559	-44.24287415	1.0
[RightHandThumb4]
15	-19.54580498	-11.28461742	11.28507042	0	0	0	1.0
16	-19.54580498	-11.28461742	11.28507042	0	0	0	1.0
[LeftUpLeg]
15	82.07781982	-67.51714325	-15.99555588	-27.65935707	19.03747559	15.95827103	1.0
16	82.07781982	-67.51714325	-15.99555588	-27.60966492	19.02171707	15.9632349	1.0
[LeftLeg]
15	-4.110157988e-06	-443.7047119	2.846426487	27.92247581	8.345579147	5.032455444	1.0
16	-4.110157988e-06	-443.7047119	2.846426487	27.78699112	8.346113205	5.028067112	1.0
[LeftFoot]
15	4.716393505e-06	-444.278717	-29.82190704	3.200386763	6.626720428	-8.704550743	1.0
16	4.716393505e-06	-444.278717	-29.82190704	3.263667583	6.622268677	-8.7050457	1.0
[LeftToeBase]
15	-2.960988058e-05	-87.28669739	107.1055984	1.342095857e-07	-3.222650776e-06	-1.754975301e-06	1.0
16	-2.960988058e-05	-87.28669739	107.1055984	1.342095857e-07	-3.222650776e-06	-1.754975301e-06	1.0
[RightUpLeg]
15	-82.07795715	-67.51662445	-15.99559402	-13.64419079	-15.21877098	-5.389667988	1.0
16	-82.07795715	-67.51662445	-15.99559402	-13.57787418	-15.14988041	-5.338830471	1.0
[RightLeg]
15	8.435572454e-07	-443.7053833	2.861563921	23.28440285	8.147205353	2.560642004	1.0
16	8.435572454e-07	-443.7053833	2.861563921	23.14985847	8.163129807	2.503310442	1.0
[RightFoot]
15	9.644581951e-06	-444.2773132	-29.83789063	-9.445116043	-8.752481461	13.46942234	1.0
16	9.644581951e-06	-444.2773132	-29.83789063	-9.428060532	-8.863789558	13.49439812	1.0
[RightToeBase]
15	-2.360438157e-05	-87.28668976	107.1056061	-2.270344567e-06	3.233250936e-06	2.690227348e-06	1.0
16	-2.360438157e-05	-87.28668976	107.1056061	-2.270344567e-06	3.233250936e-06	2.690227348e-06	1.0
[EndOfFile]
